<svg xmlns="http://www.w3.org/2000/svg" xmlns:xlink="http://www.w3.org/1999/xlink" width="200" zoomAndPan="magnify" viewBox="0 0 150 74.999997" height="100" preserveAspectRatio="xMidYMid meet" version="1.0"><defs><g/></defs><path fill="#eea904" d="M 25.769531 51.601562 C 25.75 51.492188 25.734375 51.382812 25.714844 51.273438 C 25.710938 51.25 25.707031 51.222656 25.703125 51.199219 C 25.695312 51.136719 25.691406 51.078125 25.671875 51.011719 C 25.621094 50.878906 25.609375 50.730469 25.554688 50.597656 C 25.519531 50.507812 25.503906 50.410156 25.449219 50.324219 C 25.414062 50.265625 25.390625 50.195312 25.359375 50.128906 C 25.304688 50.015625 25.253906 49.902344 25.183594 49.796875 C 25.132812 49.722656 25.09375 49.644531 25.042969 49.570312 C 24.960938 49.449219 24.878906 49.332031 24.789062 49.21875 C 24.535156 48.878906 24.238281 48.582031 23.914062 48.304688 C 23.769531 48.179688 23.613281 48.066406 23.460938 47.949219 C 23.351562 47.863281 23.238281 47.785156 23.125 47.707031 C 23.015625 47.632812 22.902344 47.566406 22.789062 47.5 C 22.675781 47.433594 22.5625 47.363281 22.445312 47.300781 C 22.339844 47.246094 22.230469 47.199219 22.121094 47.144531 C 22.042969 47.105469 21.972656 47.058594 21.894531 47.023438 C 21.828125 46.992188 21.761719 46.972656 21.699219 46.945312 C 21.679688 46.9375 21.660156 46.929688 21.640625 46.917969 C 21.566406 46.886719 21.496094 46.832031 21.425781 46.824219 C 21.328125 46.816406 21.269531 46.742188 21.179688 46.730469 C 21.089844 46.714844 21.007812 46.671875 20.925781 46.644531 C 20.851562 46.617188 20.773438 46.59375 20.691406 46.5625 C 20.667969 46.546875 20.652344 46.539062 20.636719 46.53125 C 20.632812 46.535156 20.632812 46.539062 20.628906 46.542969 C 20.640625 46.554688 20.65625 46.570312 20.671875 46.582031 C 20.773438 46.636719 20.878906 46.6875 20.980469 46.746094 C 21.144531 46.847656 21.3125 46.953125 21.476562 47.0625 C 21.71875 47.21875 21.953125 47.390625 22.171875 47.585938 C 22.308594 47.710938 22.453125 47.835938 22.582031 47.96875 C 22.753906 48.152344 22.929688 48.332031 23.066406 48.542969 C 23.136719 48.65625 23.21875 48.757812 23.292969 48.871094 C 23.355469 48.96875 23.414062 49.066406 23.464844 49.167969 C 23.523438 49.285156 23.578125 49.40625 23.628906 49.527344 C 23.644531 49.566406 23.65625 49.613281 23.667969 49.65625 C 23.671875 49.667969 23.675781 49.679688 23.683594 49.6875 C 23.699219 49.726562 23.734375 49.765625 23.734375 49.804688 C 23.734375 49.886719 23.78125 49.949219 23.796875 50.027344 C 23.824219 50.179688 23.871094 50.328125 23.875 50.480469 C 23.882812 50.617188 23.898438 50.753906 23.902344 50.886719 C 23.90625 50.957031 23.898438 51.03125 23.886719 51.101562 C 23.867188 51.230469 23.882812 51.363281 23.851562 51.496094 C 23.851562 51.5 23.855469 51.507812 23.851562 51.511719 C 23.808594 51.636719 23.8125 51.777344 23.75 51.898438 C 23.730469 51.9375 23.734375 51.988281 23.71875 52.03125 C 23.679688 52.148438 23.636719 52.265625 23.585938 52.378906 C 23.535156 52.492188 23.476562 52.601562 23.417969 52.714844 C 23.375 52.796875 23.328125 52.875 23.277344 52.953125 C 23.199219 53.070312 23.125 53.191406 23.039062 53.304688 C 22.871094 53.53125 22.683594 53.746094 22.476562 53.9375 C 22.320312 54.082031 22.175781 54.234375 21.996094 54.351562 C 21.921875 54.402344 21.859375 54.46875 21.789062 54.519531 C 21.636719 54.628906 21.480469 54.734375 21.328125 54.839844 C 21.320312 54.847656 21.308594 54.847656 21.28125 54.859375 C 21.289062 54.8125 21.289062 54.773438 21.304688 54.746094 C 21.328125 54.695312 21.34375 54.644531 21.367188 54.59375 C 21.402344 54.523438 21.414062 54.445312 21.449219 54.378906 C 21.476562 54.320312 21.488281 54.257812 21.507812 54.195312 C 21.515625 54.171875 21.527344 54.152344 21.535156 54.128906 C 21.542969 54.109375 21.554688 54.09375 21.558594 54.074219 C 21.566406 54.035156 21.566406 53.988281 21.585938 53.957031 C 21.632812 53.863281 21.617188 53.757812 21.65625 53.660156 C 21.707031 53.53125 21.695312 53.386719 21.726562 53.25 C 21.777344 53.03125 21.777344 52.804688 21.792969 52.566406 C 21.796875 52.53125 21.792969 52.507812 21.792969 52.484375 C 21.792969 52.390625 21.789062 52.296875 21.792969 52.191406 C 21.792969 52.171875 21.785156 52.160156 21.78125 52.152344 C 21.714844 52.292969 21.625 52.417969 21.527344 52.535156 C 21.429688 52.644531 21.335938 52.757812 21.230469 52.863281 C 21.105469 52.984375 20.988281 53.109375 20.855469 53.21875 C 20.746094 53.308594 20.628906 53.386719 20.515625 53.46875 C 20.402344 53.550781 20.289062 53.632812 20.175781 53.707031 C 20.078125 53.769531 19.980469 53.820312 19.882812 53.878906 C 19.78125 53.9375 19.679688 53.996094 19.578125 54.050781 C 19.457031 54.113281 19.335938 54.171875 19.210938 54.226562 C 19.082031 54.289062 18.949219 54.347656 18.816406 54.402344 C 18.746094 54.433594 18.671875 54.457031 18.601562 54.484375 C 18.511719 54.519531 18.425781 54.554688 18.335938 54.585938 C 18.214844 54.625 18.09375 54.660156 17.976562 54.699219 C 17.882812 54.730469 17.789062 54.765625 17.695312 54.796875 C 17.667969 54.804688 17.636719 54.820312 17.609375 54.820312 C 17.496094 54.828125 17.398438 54.90625 17.277344 54.898438 C 17.238281 54.894531 17.195312 54.929688 17.152344 54.945312 C 17.132812 54.953125 17.109375 54.964844 17.089844 54.964844 C 17.050781 54.96875 17.011719 54.964844 16.96875 54.964844 C 16.988281 54.890625 17.003906 54.816406 17.023438 54.742188 C 17.0625 54.613281 17.105469 54.484375 17.136719 54.351562 C 17.160156 54.253906 17.164062 54.15625 17.175781 54.058594 C 17.183594 54.007812 17.195312 53.960938 17.207031 53.914062 C 17.210938 53.886719 17.214844 53.863281 17.214844 53.839844 C 17.21875 53.710938 17.226562 53.585938 17.226562 53.457031 C 17.226562 53.351562 17.222656 53.242188 17.210938 53.132812 C 17.203125 53.042969 17.179688 52.957031 17.164062 52.867188 C 17.15625 52.804688 17.152344 52.738281 17.140625 52.675781 C 17.125 52.609375 17.097656 52.550781 17.089844 52.488281 C 17.074219 52.394531 17.03125 52.3125 17.015625 52.222656 C 17 52.121094 16.945312 52.035156 16.917969 51.9375 C 16.871094 51.785156 16.785156 51.648438 16.730469 51.5 C 16.707031 51.4375 16.664062 51.382812 16.628906 51.324219 C 16.582031 51.242188 16.53125 51.160156 16.484375 51.078125 C 16.40625 50.945312 16.320312 50.816406 16.226562 50.695312 C 16.097656 50.535156 15.976562 50.367188 15.84375 50.210938 C 15.757812 50.109375 15.65625 50.015625 15.5625 49.917969 C 15.410156 49.773438 15.261719 49.621094 15.109375 49.480469 C 14.972656 49.355469 14.828125 49.238281 14.6875 49.121094 C 14.542969 49 14.394531 48.882812 14.253906 48.757812 C 14.035156 48.558594 13.824219 48.355469 13.613281 48.152344 C 13.554688 48.097656 13.5 48.035156 13.445312 47.976562 C 13.238281 47.746094 13.027344 47.519531 12.828125 47.28125 C 12.65625 47.078125 12.5 46.863281 12.339844 46.648438 C 12.246094 46.523438 12.160156 46.394531 12.074219 46.261719 C 11.953125 46.074219 11.835938 45.886719 11.722656 45.695312 C 11.65625 45.589844 11.597656 45.480469 11.539062 45.367188 C 11.480469 45.257812 11.429688 45.140625 11.375 45.027344 C 11.320312 44.921875 11.265625 44.816406 11.214844 44.707031 C 11.175781 44.621094 11.140625 44.527344 11.101562 44.4375 C 11.066406 44.359375 11.027344 44.28125 10.996094 44.203125 C 10.960938 44.113281 10.925781 44.023438 10.890625 43.9375 C 10.855469 43.839844 10.820312 43.742188 10.789062 43.644531 C 10.753906 43.53125 10.722656 43.414062 10.691406 43.300781 C 10.679688 43.269531 10.660156 43.238281 10.652344 43.210938 C 10.621094 43.097656 10.578125 42.988281 10.566406 42.875 C 10.554688 42.789062 10.507812 42.710938 10.5 42.625 C 10.492188 42.53125 10.46875 42.441406 10.449219 42.347656 C 10.429688 42.261719 10.429688 42.175781 10.421875 42.089844 C 10.417969 42.058594 10.425781 42.023438 10.371094 42.027344 C 10.363281 42.097656 10.363281 42.171875 10.34375 42.238281 C 10.300781 42.367188 10.292969 42.503906 10.269531 42.640625 C 10.265625 42.660156 10.261719 42.683594 10.253906 42.703125 C 10.234375 42.761719 10.226562 42.820312 10.226562 42.886719 C 10.226562 42.988281 10.1875 43.085938 10.167969 43.1875 C 10.164062 43.207031 10.160156 43.230469 10.160156 43.25 C 10.167969 43.394531 10.144531 43.539062 10.113281 43.675781 C 10.09375 43.765625 10.09375 43.851562 10.085938 43.941406 C 10.078125 44.101562 10.066406 44.265625 10.054688 44.425781 C 10.046875 44.597656 10.039062 44.769531 10.023438 44.953125 C 10.019531 44.976562 10.015625 44.988281 10.015625 45 C 10.023438 45.050781 10.027344 45.101562 10.035156 45.152344 C 10.035156 45.167969 10.039062 45.179688 10.035156 45.191406 C 10 45.277344 10.007812 45.367188 10.019531 45.449219 C 10.03125 45.554688 10.011719 45.65625 10.015625 45.773438 C 10.019531 45.800781 10.023438 45.808594 10.027344 45.820312 C 10.039062 46.03125 10.054688 46.242188 10.066406 46.453125 C 10.074219 46.589844 10.074219 46.722656 10.085938 46.859375 C 10.101562 47.015625 10.128906 47.171875 10.148438 47.328125 C 10.152344 47.363281 10.15625 47.398438 10.15625 47.4375 C 10.160156 47.507812 10.164062 47.574219 10.183594 47.644531 C 10.207031 47.722656 10.210938 47.804688 10.222656 47.894531 C 10.226562 47.914062 10.230469 47.921875 10.234375 47.925781 C 10.230469 47.933594 10.230469 47.941406 10.226562 47.957031 C 10.222656 47.964844 10.222656 47.96875 10.222656 47.96875 C 10.222656 47.972656 10.226562 47.976562 10.226562 47.980469 C 10.230469 48.003906 10.230469 48.023438 10.234375 48.054688 C 10.238281 48.074219 10.242188 48.078125 10.25 48.078125 C 10.265625 48.183594 10.28125 48.289062 10.296875 48.394531 C 10.300781 48.40625 10.300781 48.421875 10.304688 48.433594 C 10.320312 48.503906 10.347656 48.574219 10.355469 48.648438 C 10.363281 48.789062 10.4375 48.914062 10.429688 49.058594 C 10.429688 49.089844 10.453125 49.121094 10.460938 49.152344 C 10.5 49.316406 10.523438 49.480469 10.578125 49.636719 C 10.621094 49.75 10.621094 49.875 10.679688 49.980469 C 10.691406 49.996094 10.695312 50.015625 10.691406 50.035156 C 10.6875 50.101562 10.71875 50.152344 10.746094 50.210938 C 10.75 50.222656 10.761719 50.238281 10.761719 50.253906 C 10.757812 50.332031 10.800781 50.398438 10.824219 50.472656 C 10.855469 50.574219 10.882812 50.671875 10.914062 50.769531 C 10.941406 50.851562 10.972656 50.929688 11 51.011719 C 11.007812 51.03125 11 51.050781 11 51.085938 C 10.816406 50.957031 10.648438 50.839844 10.496094 50.703125 C 10.351562 50.578125 10.199219 50.460938 10.0625 50.332031 C 9.925781 50.203125 9.796875 50.0625 9.667969 49.925781 C 9.570312 49.820312 9.472656 49.714844 9.382812 49.605469 C 9.269531 49.472656 9.160156 49.335938 9.058594 49.195312 C 8.964844 49.0625 8.878906 48.921875 8.789062 48.785156 C 8.710938 48.660156 8.628906 48.539062 8.558594 48.410156 C 8.492188 48.300781 8.441406 48.179688 8.382812 48.066406 C 8.355469 48.011719 8.324219 47.957031 8.296875 47.902344 C 8.25 47.816406 8.207031 47.730469 8.183594 47.632812 C 8.164062 47.570312 8.128906 47.515625 8.105469 47.457031 C 8.0625 47.359375 8.019531 47.257812 7.984375 47.160156 C 7.953125 47.070312 7.945312 46.976562 7.90625 46.894531 C 7.855469 46.789062 7.847656 46.671875 7.804688 46.566406 C 7.792969 46.542969 7.78125 46.515625 7.78125 46.488281 C 7.78125 46.394531 7.734375 46.3125 7.71875 46.222656 C 7.710938 46.195312 7.703125 46.167969 7.703125 46.140625 C 7.710938 46.085938 7.691406 46.039062 7.660156 45.992188 C 7.644531 46.085938 7.640625 46.175781 7.613281 46.261719 C 7.5625 46.433594 7.570312 46.605469 7.550781 46.777344 C 7.53125 46.941406 7.488281 47.101562 7.503906 47.269531 C 7.511719 47.386719 7.515625 47.503906 7.515625 47.625 C 7.515625 47.707031 7.503906 47.792969 7.503906 47.875 C 7.507812 47.953125 7.523438 48.027344 7.53125 48.105469 C 7.542969 48.1875 7.546875 48.273438 7.554688 48.355469 C 7.5625 48.460938 7.566406 48.566406 7.578125 48.671875 C 7.589844 48.742188 7.609375 48.808594 7.621094 48.878906 C 7.652344 49.042969 7.679688 49.207031 7.710938 49.371094 C 7.714844 49.398438 7.734375 49.421875 7.742188 49.449219 C 7.757812 49.515625 7.765625 49.582031 7.78125 49.648438 C 7.789062 49.675781 7.808594 49.703125 7.816406 49.730469 C 7.851562 49.855469 7.882812 49.980469 7.921875 50.105469 C 7.949219 50.191406 7.988281 50.273438 8.023438 50.359375 C 8.050781 50.441406 8.078125 50.523438 8.117188 50.601562 C 8.15625 50.671875 8.179688 50.753906 8.210938 50.828125 C 8.246094 50.914062 8.285156 50.996094 8.324219 51.082031 C 8.347656 51.128906 8.371094 51.175781 8.394531 51.222656 C 8.464844 51.351562 8.527344 51.484375 8.605469 51.609375 C 8.703125 51.765625 8.808594 51.921875 8.914062 52.074219 C 9 52.203125 9.089844 52.328125 9.191406 52.472656 C 9.148438 52.457031 9.125 52.457031 9.105469 52.441406 C 8.929688 52.289062 8.753906 52.140625 8.578125 51.984375 C 8.488281 51.90625 8.390625 51.824219 8.304688 51.738281 C 8.117188 51.5625 7.929688 51.382812 7.753906 51.195312 C 7.53125 50.964844 7.316406 50.730469 7.105469 50.488281 C 6.976562 50.34375 6.863281 50.183594 6.746094 50.03125 C 6.675781 49.941406 6.597656 49.855469 6.53125 49.765625 C 6.378906 49.546875 6.222656 49.332031 6.074219 49.113281 C 5.945312 48.917969 5.816406 48.71875 5.695312 48.519531 C 5.597656 48.363281 5.507812 48.203125 5.414062 48.042969 C 5.34375 47.917969 5.273438 47.796875 5.210938 47.667969 C 5.152344 47.554688 5.101562 47.4375 5.046875 47.320312 C 5.015625 47.257812 4.980469 47.195312 4.949219 47.132812 C 4.925781 47.085938 4.902344 47.035156 4.882812 46.984375 C 4.847656 46.902344 4.8125 46.820312 4.78125 46.738281 C 4.757812 46.679688 4.734375 46.625 4.710938 46.566406 C 4.675781 46.488281 4.625 46.414062 4.605469 46.332031 C 4.585938 46.238281 4.511719 46.167969 4.511719 46.066406 C 4.511719 46.042969 4.484375 46.019531 4.476562 45.992188 C 4.4375 45.890625 4.40625 45.785156 4.371094 45.679688 C 4.339844 45.59375 4.304688 45.503906 4.273438 45.414062 C 4.238281 45.296875 4.203125 45.179688 4.167969 45.0625 C 4.152344 45.011719 4.132812 44.964844 4.121094 44.914062 C 4.089844 44.792969 4.0625 44.671875 4.03125 44.554688 C 4.023438 44.507812 4.003906 44.464844 3.988281 44.421875 C 3.984375 44.410156 3.972656 44.398438 3.976562 44.386719 C 3.988281 44.300781 3.933594 44.230469 3.921875 44.148438 C 3.914062 44.101562 3.90625 44.054688 3.898438 44.011719 C 3.882812 43.945312 3.859375 43.878906 3.851562 43.8125 C 3.828125 43.636719 3.761719 43.464844 3.761719 43.285156 C 3.765625 43.234375 3.734375 43.183594 3.726562 43.128906 C 3.714844 43.058594 3.710938 42.988281 3.703125 42.917969 C 3.683594 42.800781 3.660156 42.683594 3.644531 42.5625 C 3.636719 42.476562 3.640625 42.386719 3.632812 42.296875 C 3.628906 42.253906 3.617188 42.214844 3.609375 42.171875 C 3.601562 42.101562 3.589844 42.03125 3.585938 41.957031 C 3.574219 41.839844 3.566406 41.722656 3.5625 41.605469 C 3.558594 41.566406 3.578125 41.523438 3.570312 41.488281 C 3.542969 41.351562 3.566406 41.21875 3.5625 41.082031 C 3.554688 40.941406 3.558594 40.800781 3.558594 40.660156 C 3.558594 40.523438 3.570312 40.386719 3.5625 40.25 C 3.554688 40.125 3.5625 40 3.566406 39.875 C 3.570312 39.726562 3.574219 39.574219 3.605469 39.429688 C 3.632812 39.3125 3.621094 39.199219 3.636719 39.082031 C 3.648438 38.976562 3.675781 38.871094 3.691406 38.765625 C 3.703125 38.6875 3.703125 38.609375 3.707031 38.535156 C 3.710938 38.507812 3.710938 38.476562 3.71875 38.453125 C 3.757812 38.328125 3.761719 38.195312 3.785156 38.070312 C 3.816406 37.910156 3.855469 37.757812 3.890625 37.601562 C 3.90625 37.527344 3.910156 37.449219 3.933594 37.382812 C 3.976562 37.261719 3.980469 37.128906 4.027344 37.007812 C 4.074219 36.902344 4.074219 36.78125 4.113281 36.671875 C 4.15625 36.546875 4.167969 36.414062 4.234375 36.296875 C 4.257812 36.257812 4.25 36.207031 4.269531 36.164062 C 4.3125 36.050781 4.339844 35.933594 4.378906 35.824219 C 4.417969 35.71875 4.46875 35.621094 4.503906 35.515625 C 4.523438 35.445312 4.550781 35.378906 4.578125 35.308594 C 4.625 35.210938 4.664062 35.105469 4.703125 35.003906 C 4.730469 34.9375 4.753906 34.871094 4.777344 34.808594 C 4.785156 34.792969 4.789062 34.777344 4.796875 34.761719 C 4.847656 34.660156 4.894531 34.554688 4.9375 34.445312 C 4.988281 34.328125 5.058594 34.21875 5.117188 34.105469 C 5.148438 34.042969 5.171875 33.972656 5.203125 33.90625 C 5.25 33.8125 5.300781 33.722656 5.351562 33.632812 C 5.386719 33.5625 5.417969 33.492188 5.457031 33.425781 C 5.492188 33.367188 5.527344 33.3125 5.5625 33.253906 C 5.625 33.152344 5.683594 33.050781 5.742188 32.949219 C 5.816406 32.835938 5.886719 32.722656 5.960938 32.609375 C 6.027344 32.507812 6.097656 32.402344 6.164062 32.304688 C 6.242188 32.191406 6.324219 32.085938 6.40625 31.972656 C 6.515625 31.824219 6.625 31.667969 6.738281 31.519531 C 7.015625 31.167969 7.308594 30.832031 7.609375 30.503906 C 7.777344 30.324219 7.953125 30.152344 8.136719 29.972656 C 8.171875 29.945312 8.195312 29.921875 8.21875 29.898438 C 8.214844 29.894531 8.210938 29.890625 8.207031 29.886719 C 8.175781 29.90625 8.144531 29.925781 8.113281 29.945312 C 7.988281 30.027344 7.863281 30.113281 7.734375 30.191406 C 7.542969 30.304688 7.367188 30.441406 7.183594 30.566406 C 7 30.691406 6.828125 30.832031 6.652344 30.96875 C 6.503906 31.089844 6.359375 31.21875 6.21875 31.34375 C 6.03125 31.511719 5.839844 31.671875 5.660156 31.847656 C 5.417969 32.085938 5.179688 32.335938 4.941406 32.582031 C 4.742188 32.789062 4.558594 33.015625 4.371094 33.238281 C 4.238281 33.402344 4.113281 33.570312 3.984375 33.738281 C 3.894531 33.851562 3.804688 33.96875 3.71875 34.089844 C 3.601562 34.257812 3.484375 34.429688 3.375 34.601562 C 3.257812 34.792969 3.144531 34.984375 3.035156 35.179688 C 2.945312 35.332031 2.855469 35.488281 2.769531 35.644531 C 2.695312 35.773438 2.625 35.90625 2.558594 36.042969 C 2.503906 36.160156 2.457031 36.285156 2.402344 36.402344 C 2.34375 36.527344 2.277344 36.648438 2.222656 36.773438 C 2.1875 36.847656 2.164062 36.925781 2.132812 37.003906 C 2.121094 37.039062 2.097656 37.070312 2.085938 37.105469 C 2.046875 37.222656 2.007812 37.339844 1.949219 37.453125 C 1.910156 37.523438 1.898438 37.609375 1.875 37.6875 C 1.839844 37.789062 1.804688 37.890625 1.769531 37.992188 C 1.761719 38.023438 1.757812 38.054688 1.746094 38.082031 C 1.730469 38.113281 1.714844 38.144531 1.6875 38.195312 C 1.675781 38.160156 1.667969 38.144531 1.667969 38.132812 C 1.664062 37.945312 1.664062 37.757812 1.664062 37.570312 C 1.664062 37.304688 1.664062 37.039062 1.664062 36.773438 C 1.667969 36.585938 1.664062 36.398438 1.671875 36.210938 C 1.679688 36.082031 1.703125 35.953125 1.71875 35.824219 C 1.722656 35.769531 1.714844 35.71875 1.722656 35.664062 C 1.75 35.511719 1.75 35.351562 1.789062 35.195312 C 1.808594 35.105469 1.804688 35 1.820312 34.90625 C 1.847656 34.75 1.859375 34.589844 1.902344 34.4375 C 1.933594 34.34375 1.925781 34.246094 1.957031 34.148438 C 2 34.023438 2.042969 33.890625 2.058594 33.757812 C 2.078125 33.609375 2.128906 33.476562 2.167969 33.335938 C 2.183594 33.261719 2.195312 33.1875 2.222656 33.117188 C 2.246094 33.046875 2.265625 32.976562 2.289062 32.90625 C 2.316406 32.804688 2.359375 32.710938 2.394531 32.613281 C 2.425781 32.519531 2.449219 32.425781 2.480469 32.332031 C 2.515625 32.242188 2.554688 32.152344 2.589844 32.0625 C 2.621094 31.984375 2.644531 31.90625 2.679688 31.828125 C 2.71875 31.734375 2.765625 31.644531 2.808594 31.554688 C 2.832031 31.5 2.855469 31.449219 2.878906 31.394531 C 2.933594 31.25 2.996094 31.109375 3.078125 30.980469 C 3.109375 30.9375 3.121094 30.886719 3.144531 30.839844 C 3.210938 30.710938 3.28125 30.585938 3.347656 30.460938 C 3.425781 30.324219 3.5 30.1875 3.578125 30.054688 C 3.632812 29.960938 3.695312 29.875 3.75 29.785156 C 3.824219 29.671875 3.894531 29.554688 3.96875 29.441406 C 4.085938 29.273438 4.199219 29.105469 4.320312 28.941406 C 4.398438 28.835938 4.488281 28.738281 4.570312 28.632812 C 4.625 28.5625 4.675781 28.484375 4.734375 28.417969 C 4.902344 28.222656 5.078125 28.027344 5.253906 27.832031 C 5.363281 27.710938 5.480469 27.585938 5.59375 27.464844 C 5.652344 27.402344 5.714844 27.347656 5.777344 27.289062 C 5.808594 27.257812 5.835938 27.226562 5.867188 27.199219 C 6.046875 27.027344 6.21875 26.851562 6.40625 26.691406 C 6.625 26.5 6.851562 26.316406 7.082031 26.136719 C 7.277344 25.980469 7.476562 25.832031 7.679688 25.6875 C 7.863281 25.554688 8.050781 25.433594 8.238281 25.308594 C 8.359375 25.226562 8.476562 25.140625 8.601562 25.066406 C 8.695312 25.007812 8.792969 24.957031 8.890625 24.902344 C 8.980469 24.847656 9.070312 24.789062 9.164062 24.734375 C 9.226562 24.699219 9.292969 24.667969 9.359375 24.636719 C 9.40625 24.609375 9.457031 24.585938 9.503906 24.554688 C 9.625 24.480469 9.761719 24.425781 9.882812 24.355469 C 10.039062 24.265625 10.203125 24.195312 10.359375 24.117188 C 10.523438 24.035156 10.695312 23.96875 10.875 23.890625 C 10.921875 23.878906 10.960938 23.886719 10.976562 23.828125 C 10.933594 23.839844 10.902344 23.847656 10.871094 23.859375 C 10.628906 23.867188 10.382812 23.878906 10.136719 23.882812 C 10.027344 23.886719 9.917969 23.902344 9.804688 23.894531 C 9.703125 23.890625 9.601562 23.921875 9.5 23.929688 C 9.378906 23.941406 9.257812 23.945312 9.140625 23.960938 C 9.027344 23.976562 8.914062 24.003906 8.800781 24.023438 C 8.785156 24.027344 8.765625 24.039062 8.75 24.039062 C 8.621094 24.023438 8.503906 24.066406 8.382812 24.089844 C 8.351562 24.09375 8.316406 24.109375 8.28125 24.070312 C 8.328125 24.035156 8.371094 23.996094 8.417969 23.96875 C 8.5 23.917969 8.585938 23.871094 8.671875 23.820312 C 8.714844 23.796875 8.753906 23.765625 8.792969 23.738281 C 8.882812 23.683594 8.972656 23.625 9.066406 23.570312 C 9.230469 23.476562 9.394531 23.382812 9.5625 23.292969 C 9.734375 23.199219 9.90625 23.113281 10.082031 23.027344 C 10.285156 22.929688 10.488281 22.832031 10.691406 22.742188 C 10.878906 22.660156 11.074219 22.589844 11.261719 22.515625 C 11.410156 22.457031 11.558594 22.394531 11.707031 22.339844 C 11.800781 22.304688 11.898438 22.285156 11.996094 22.25 C 12.085938 22.21875 12.175781 22.183594 12.269531 22.148438 C 12.308594 22.136719 12.34375 22.117188 12.382812 22.113281 C 12.414062 22.113281 12.433594 22.101562 12.457031 22.09375 C 12.511719 22.074219 12.566406 22.066406 12.621094 22.050781 C 12.652344 22.039062 12.6875 22.023438 12.722656 22.011719 C 12.835938 21.980469 12.953125 21.949219 13.066406 21.917969 C 13.164062 21.890625 13.257812 21.855469 13.351562 21.847656 C 13.480469 21.839844 13.589844 21.761719 13.722656 21.777344 C 13.78125 21.78125 13.847656 21.742188 13.90625 21.722656 C 13.921875 21.71875 13.9375 21.707031 13.953125 21.710938 C 14.046875 21.722656 14.128906 21.675781 14.214844 21.664062 C 14.386719 21.640625 14.554688 21.605469 14.726562 21.578125 C 14.925781 21.550781 15.125 21.53125 15.324219 21.507812 C 15.507812 21.488281 15.691406 21.464844 15.875 21.449219 C 15.996094 21.441406 16.121094 21.433594 16.246094 21.441406 C 16.351562 21.449219 16.457031 21.453125 16.558594 21.414062 C 16.570312 21.410156 16.589844 21.410156 16.605469 21.410156 C 16.851562 21.410156 17.101562 21.402344 17.351562 21.40625 C 17.476562 21.410156 17.609375 21.410156 17.734375 21.441406 C 17.769531 21.449219 17.808594 21.445312 17.847656 21.445312 C 17.9375 21.445312 18.023438 21.445312 18.128906 21.445312 C 18.144531 21.445312 18.148438 21.441406 18.152344 21.441406 C 18.308594 21.457031 18.46875 21.453125 18.625 21.484375 C 18.753906 21.511719 18.882812 21.5 19.007812 21.519531 C 19.042969 21.523438 19.082031 21.53125 19.117188 21.539062 C 19.273438 21.566406 19.429688 21.574219 19.585938 21.597656 C 19.738281 21.621094 19.894531 21.636719 20.039062 21.679688 C 20.152344 21.710938 20.269531 21.699219 20.375 21.742188 C 20.5 21.796875 20.640625 21.789062 20.769531 21.835938 C 20.910156 21.886719 21.070312 21.890625 21.214844 21.941406 C 21.328125 21.980469 21.453125 21.980469 21.5625 22.042969 C 21.613281 22.070312 21.683594 22.066406 21.742188 22.085938 C 21.878906 22.125 22.019531 22.167969 22.15625 22.214844 C 22.335938 22.273438 22.515625 22.335938 22.691406 22.398438 C 22.816406 22.441406 22.9375 22.492188 23.058594 22.539062 C 23.09375 22.554688 23.128906 22.574219 23.167969 22.585938 C 23.054688 22.425781 22.921875 22.285156 22.78125 22.152344 C 22.640625 22.019531 22.5 21.886719 22.351562 21.761719 C 22.203125 21.632812 22.046875 21.515625 21.894531 21.394531 C 21.898438 21.386719 21.898438 21.378906 21.902344 21.371094 C 21.957031 21.371094 22.011719 21.367188 22.0625 21.371094 C 22.175781 21.382812 22.285156 21.378906 22.390625 21.433594 C 22.40625 21.441406 22.425781 21.441406 22.445312 21.441406 C 22.492188 21.445312 22.542969 21.441406 22.589844 21.453125 C 22.699219 21.476562 22.8125 21.5 22.921875 21.523438 C 23.035156 21.546875 23.144531 21.574219 23.253906 21.601562 C 23.355469 21.632812 23.457031 21.671875 23.558594 21.703125 C 23.613281 21.71875 23.671875 21.722656 23.71875 21.746094 C 23.769531 21.769531 23.816406 21.777344 23.867188 21.792969 C 23.917969 21.808594 23.96875 21.828125 24.019531 21.847656 C 24.105469 21.882812 24.195312 21.914062 24.277344 21.949219 C 24.367188 21.984375 24.453125 22.019531 24.539062 22.058594 C 24.617188 22.089844 24.6875 22.132812 24.761719 22.167969 C 24.820312 22.195312 24.882812 22.222656 24.945312 22.25 C 24.960938 22.257812 24.980469 22.265625 24.992188 22.277344 C 25.042969 22.332031 25.117188 22.34375 25.179688 22.382812 C 25.285156 22.457031 25.402344 22.511719 25.511719 22.578125 C 25.625 22.644531 25.734375 22.714844 25.84375 22.785156 C 25.929688 22.839844 26.011719 22.898438 26.09375 22.957031 C 26.171875 23.015625 26.246094 23.074219 26.320312 23.132812 C 26.472656 23.261719 26.628906 23.390625 26.777344 23.523438 C 26.863281 23.597656 26.953125 23.671875 27.027344 23.757812 C 27.175781 23.929688 27.351562 24.078125 27.476562 24.269531 C 27.542969 24.371094 27.636719 24.453125 27.703125 24.550781 C 27.835938 24.738281 27.980469 24.917969 28.085938 25.125 C 28.136719 25.226562 28.203125 25.320312 28.257812 25.417969 C 28.292969 25.484375 28.320312 25.558594 28.351562 25.628906 C 28.378906 25.683594 28.410156 25.742188 28.4375 25.796875 C 28.488281 25.898438 28.539062 26 28.566406 26.109375 C 28.585938 26.195312 28.636719 26.269531 28.664062 26.347656 C 28.683594 26.394531 28.679688 26.449219 28.695312 26.496094 C 28.710938 26.542969 28.742188 26.582031 28.757812 26.628906 C 28.78125 26.691406 28.792969 26.761719 28.808594 26.824219 C 28.835938 26.933594 28.867188 27.039062 28.886719 27.148438 C 28.917969 27.316406 28.945312 27.488281 28.964844 27.65625 C 28.972656 27.734375 28.96875 27.8125 28.992188 27.886719 C 29.003906 27.921875 29 27.960938 29.003906 27.996094 C 29.011719 28.109375 29.019531 28.222656 29.023438 28.332031 C 29.023438 28.429688 29.011719 28.523438 29.007812 28.632812 C 28.914062 28.578125 28.839844 28.53125 28.765625 28.484375 C 28.699219 28.445312 28.628906 28.40625 28.558594 28.371094 C 28.445312 28.304688 28.320312 28.257812 28.203125 28.199219 C 28.132812 28.164062 28.050781 28.140625 27.976562 28.113281 C 27.96875 28.109375 27.960938 28.109375 27.957031 28.105469 C 27.824219 28.03125 27.675781 28 27.535156 27.949219 C 27.46875 27.921875 27.390625 27.910156 27.328125 27.875 C 27.257812 27.835938 27.179688 27.84375 27.109375 27.8125 C 27.042969 27.785156 26.964844 27.777344 26.902344 27.75 C 26.78125 27.699219 26.648438 27.703125 26.527344 27.644531 C 26.472656 27.617188 26.40625 27.625 26.347656 27.605469 C 26.242188 27.5625 26.128906 27.570312 26.027344 27.527344 C 25.96875 27.503906 25.917969 27.476562 25.839844 27.507812 C 25.910156 27.546875 25.96875 27.585938 26.03125 27.621094 C 26.144531 27.691406 26.257812 27.753906 26.371094 27.820312 C 26.519531 27.910156 26.667969 28.003906 26.816406 28.097656 C 26.960938 28.191406 27.105469 28.285156 27.242188 28.382812 C 27.382812 28.484375 27.519531 28.589844 27.65625 28.695312 C 27.78125 28.792969 27.910156 28.886719 28.03125 28.984375 C 28.191406 29.113281 28.34375 29.246094 28.5 29.375 C 28.601562 29.464844 28.707031 29.550781 28.804688 29.644531 C 28.964844 29.796875 29.121094 29.957031 29.273438 30.113281 C 29.359375 30.203125 29.449219 30.292969 29.53125 30.386719 C 29.675781 30.558594 29.824219 30.734375 29.964844 30.914062 C 30.046875 31.015625 30.113281 31.132812 30.1875 31.242188 C 30.25 31.332031 30.316406 31.417969 30.363281 31.515625 C 30.394531 31.578125 30.453125 31.632812 30.453125 31.710938 C 30.453125 31.726562 30.484375 31.742188 30.492188 31.757812 C 30.53125 31.832031 30.566406 31.90625 30.601562 31.980469 C 30.632812 32.050781 30.652344 32.125 30.683594 32.195312 C 30.703125 32.25 30.738281 32.296875 30.730469 32.363281 C 30.730469 32.378906 30.75 32.394531 30.753906 32.410156 C 30.777344 32.472656 30.804688 32.53125 30.804688 32.597656 C 30.804688 32.644531 30.828125 32.691406 30.839844 32.738281 C 30.871094 32.835938 30.863281 32.941406 30.878906 33.039062 C 30.894531 33.160156 30.914062 33.277344 30.941406 33.394531 C 30.960938 33.457031 31.003906 33.507812 30.996094 33.578125 C 31.046875 33.617188 31.054688 33.679688 31.085938 33.730469 C 31.1875 33.902344 31.308594 34.058594 31.433594 34.210938 C 31.589844 34.40625 31.738281 34.605469 31.894531 34.800781 C 32.035156 34.984375 32.183594 35.164062 32.328125 35.34375 C 32.457031 35.507812 32.578125 35.675781 32.707031 35.839844 C 32.847656 36.019531 32.996094 36.191406 33.136719 36.371094 C 33.3125 36.59375 33.480469 36.820312 33.65625 37.042969 C 33.777344 37.199219 33.90625 37.347656 34.03125 37.503906 C 34.144531 37.644531 34.253906 37.789062 34.367188 37.933594 C 34.386719 37.957031 34.410156 37.980469 34.390625 38.019531 C 34.191406 38.003906 33.996094 38.015625 33.796875 38.03125 C 33.65625 38.039062 33.519531 38.035156 33.378906 38.042969 C 33.222656 38.054688 33.070312 38.074219 32.914062 38.078125 C 32.800781 38.082031 32.683594 38.070312 32.570312 38.074219 C 32.421875 38.078125 32.285156 38.03125 32.136719 38.039062 C 32.054688 38.042969 31.976562 38.003906 31.894531 37.984375 C 31.847656 37.972656 31.800781 37.972656 31.757812 37.957031 C 31.667969 37.925781 31.582031 37.890625 31.484375 37.851562 C 31.476562 37.886719 31.464844 37.917969 31.46875 37.949219 C 31.484375 38.054688 31.472656 38.167969 31.507812 38.273438 C 31.519531 38.304688 31.527344 38.335938 31.535156 38.371094 C 31.566406 38.5625 31.664062 38.714844 31.820312 38.828125 C 31.902344 38.886719 32.003906 38.925781 32.097656 38.972656 C 32.195312 39.015625 32.292969 39.0625 32.386719 39.105469 C 32.449219 39.132812 32.507812 39.152344 32.566406 39.175781 C 32.695312 39.226562 32.816406 39.292969 32.925781 39.378906 C 32.980469 39.417969 33.035156 39.457031 33.085938 39.5 C 33.171875 39.574219 33.222656 39.675781 33.257812 39.792969 C 33.378906 39.742188 33.503906 39.691406 33.621094 39.636719 C 33.703125 39.597656 33.933594 39.546875 34.027344 39.554688 C 33.984375 39.625 33.949219 39.691406 33.910156 39.753906 C 33.851562 39.839844 33.792969 39.925781 33.734375 40.011719 C 33.621094 40.167969 33.527344 40.335938 33.398438 40.480469 C 33.316406 40.570312 33.257812 40.675781 33.179688 40.765625 C 33.113281 40.847656 33.039062 40.917969 32.9375 40.960938 C 32.90625 40.972656 32.878906 41 32.84375 41.023438 C 32.796875 40.894531 32.890625 40.796875 32.898438 40.6875 C 32.902344 40.578125 32.945312 40.46875 32.972656 40.351562 C 32.945312 40.355469 32.925781 40.351562 32.917969 40.359375 C 32.785156 40.457031 32.65625 40.550781 32.511719 40.625 C 32.40625 40.679688 32.3125 40.757812 32.210938 40.8125 C 32.015625 40.914062 31.816406 41.011719 31.605469 41.070312 C 31.46875 41.109375 31.332031 41.152344 31.191406 41.167969 C 31.167969 41.171875 31.148438 41.1875 31.125 41.195312 C 30.992188 41.226562 30.863281 41.265625 30.730469 41.289062 C 30.65625 41.304688 30.582031 41.320312 30.507812 41.335938 C 30.445312 41.351562 30.382812 41.355469 30.324219 41.371094 C 30.285156 41.378906 30.25 41.394531 30.210938 41.40625 C 30.066406 41.4375 29.921875 41.46875 29.773438 41.496094 C 29.613281 41.527344 29.449219 41.546875 29.285156 41.574219 C 29.21875 41.585938 29.15625 41.609375 29.09375 41.617188 C 29.019531 41.628906 28.945312 41.632812 28.875 41.636719 C 28.859375 41.636719 28.847656 41.632812 28.835938 41.636719 C 28.632812 41.710938 28.421875 41.707031 28.214844 41.710938 C 28.160156 41.714844 28.109375 41.722656 28.058594 41.730469 C 27.898438 41.753906 27.742188 41.757812 27.589844 41.714844 C 27.578125 41.710938 27.570312 41.710938 27.558594 41.710938 C 27.457031 41.71875 27.359375 41.6875 27.257812 41.660156 C 27.136719 41.625 27.027344 41.570312 26.917969 41.511719 C 26.824219 41.464844 26.730469 41.425781 26.636719 41.378906 C 26.636719 41.390625 26.636719 41.40625 26.640625 41.421875 C 26.644531 41.46875 26.648438 41.519531 26.660156 41.566406 C 26.667969 41.601562 26.6875 41.636719 26.695312 41.671875 C 26.730469 41.773438 26.757812 41.875 26.796875 41.976562 C 26.820312 42.035156 26.859375 42.085938 26.890625 42.144531 C 26.9375 42.230469 27 42.304688 27.0625 42.382812 C 27.1875 42.535156 27.34375 42.648438 27.523438 42.734375 C 27.644531 42.792969 27.773438 42.8125 27.898438 42.851562 C 27.964844 42.871094 28.035156 42.859375 28.105469 42.855469 C 28.167969 42.855469 28.234375 42.851562 28.296875 42.855469 C 28.394531 42.863281 28.476562 42.828125 28.566406 42.8125 C 28.625 42.804688 28.683594 42.804688 28.742188 42.789062 C 28.792969 42.777344 28.84375 42.75 28.898438 42.738281 C 29.003906 42.71875 29.101562 42.679688 29.207031 42.652344 C 29.335938 42.613281 29.46875 42.582031 29.59375 42.539062 C 29.703125 42.496094 29.816406 42.476562 29.929688 42.441406 C 30.015625 42.414062 30.101562 42.378906 30.183594 42.347656 C 30.199219 42.34375 30.210938 42.332031 30.226562 42.328125 C 30.332031 42.300781 30.433594 42.277344 30.535156 42.242188 C 30.636719 42.207031 30.734375 42.164062 30.835938 42.125 C 30.929688 42.09375 31.027344 42.066406 31.121094 42.035156 C 31.210938 42 31.300781 41.960938 31.390625 41.925781 C 31.480469 41.894531 31.570312 41.867188 31.660156 41.832031 C 31.746094 41.800781 31.832031 41.765625 31.917969 41.730469 C 31.996094 41.699219 32.070312 41.667969 32.148438 41.640625 C 32.167969 41.632812 32.195312 41.640625 32.230469 41.644531 C 32.183594 41.792969 32.140625 41.929688 32.101562 42.066406 C 32.074219 42.148438 32.050781 42.226562 32.023438 42.308594 C 32.015625 42.339844 32.007812 42.371094 31.988281 42.394531 C 31.964844 42.417969 31.949219 42.441406 31.953125 42.476562 C 31.953125 42.484375 31.953125 42.496094 31.945312 42.5 C 31.878906 42.558594 31.875 42.652344 31.824219 42.722656 C 31.777344 42.789062 31.742188 42.867188 31.699219 42.9375 C 31.671875 42.976562 31.644531 43.019531 31.617188 43.0625 C 31.582031 43.117188 31.601562 43.175781 31.628906 43.226562 C 31.652344 43.269531 31.6875 43.308594 31.6875 43.367188 C 31.6875 43.390625 31.714844 43.414062 31.722656 43.441406 C 31.75 43.558594 31.796875 43.671875 31.824219 43.792969 C 31.855469 43.925781 31.875 44.058594 31.898438 44.191406 C 31.933594 44.414062 31.960938 44.632812 31.933594 44.859375 C 31.921875 44.964844 31.90625 45.070312 31.890625 45.179688 C 31.886719 45.203125 31.886719 45.226562 31.882812 45.25 C 31.882812 45.289062 31.886719 45.324219 31.875 45.359375 C 31.84375 45.480469 31.808594 45.597656 31.769531 45.714844 C 31.730469 45.839844 31.671875 45.953125 31.621094 46.070312 C 31.53125 46.28125 31.410156 46.46875 31.285156 46.660156 C 31.058594 47.003906 30.78125 47.300781 30.46875 47.566406 C 30.320312 47.691406 30.164062 47.8125 30.003906 47.929688 C 29.890625 48.007812 29.773438 48.078125 29.65625 48.148438 C 29.636719 48.160156 29.605469 48.164062 29.589844 48.15625 C 29.558594 48.140625 29.578125 48.113281 29.589844 48.09375 C 29.636719 47.988281 29.632812 47.875 29.648438 47.761719 C 29.675781 47.578125 29.632812 47.398438 29.636719 47.214844 C 29.636719 47.1875 29.613281 47.160156 29.605469 47.132812 C 29.582031 47.011719 29.539062 46.894531 29.488281 46.78125 C 29.433594 46.652344 29.351562 46.53125 29.273438 46.410156 C 29.222656 46.332031 29.164062 46.253906 29.105469 46.179688 C 29.042969 46.109375 28.976562 46.042969 28.910156 45.980469 C 28.832031 45.910156 28.757812 45.84375 28.675781 45.777344 C 28.535156 45.664062 28.394531 45.554688 28.246094 45.449219 C 28.0625 45.316406 27.875 45.1875 27.683594 45.058594 C 27.59375 45 27.496094 44.957031 27.40625 44.898438 C 27.273438 44.8125 27.136719 44.738281 26.996094 44.667969 C 26.878906 44.605469 26.761719 44.546875 26.644531 44.488281 C 26.53125 44.429688 26.414062 44.375 26.296875 44.320312 C 26.175781 44.261719 26.054688 44.207031 25.933594 44.152344 C 25.804688 44.09375 25.675781 44.035156 25.546875 43.980469 C 25.476562 43.949219 25.40625 43.917969 25.335938 43.886719 C 25.246094 43.847656 25.15625 43.804688 25.066406 43.765625 C 24.992188 43.734375 24.917969 43.707031 24.847656 43.671875 C 24.742188 43.625 24.636719 43.570312 24.535156 43.515625 C 24.429688 43.460938 24.332031 43.402344 24.230469 43.34375 C 24.078125 43.257812 23.921875 43.183594 23.78125 43.074219 C 23.675781 43 23.5625 42.941406 23.457031 42.867188 C 23.238281 42.722656 23.027344 42.570312 22.832031 42.390625 C 22.726562 42.292969 22.609375 42.207031 22.503906 42.105469 C 22.355469 41.960938 22.210938 41.8125 22.074219 41.660156 C 21.902344 41.46875 21.75 41.265625 21.613281 41.050781 C 21.542969 40.9375 21.476562 40.828125 21.410156 40.714844 C 21.320312 40.554688 21.242188 40.390625 21.171875 40.222656 C 21.117188 40.089844 21.074219 39.957031 21.027344 39.824219 C 21.023438 39.816406 21.015625 39.804688 21.015625 39.796875 C 21.023438 39.703125 20.96875 39.628906 20.957031 39.539062 C 20.953125 39.507812 20.949219 39.480469 20.945312 39.449219 C 20.929688 39.355469 20.914062 39.265625 20.898438 39.15625 C 20.863281 39.230469 20.835938 39.292969 20.804688 39.355469 C 20.765625 39.441406 20.71875 39.527344 20.6875 39.621094 C 20.648438 39.722656 20.628906 39.832031 20.59375 39.9375 C 20.558594 40.050781 20.546875 40.167969 20.511719 40.277344 C 20.460938 40.453125 20.472656 40.632812 20.441406 40.824219 C 20.441406 40.855469 20.441406 40.867188 20.445312 40.882812 C 20.441406 40.945312 20.441406 41.007812 20.441406 41.085938 C 20.441406 41.101562 20.441406 41.105469 20.441406 41.109375 C 20.449219 41.1875 20.453125 41.265625 20.460938 41.359375 C 20.433594 41.347656 20.414062 41.347656 20.40625 41.335938 C 20.332031 41.242188 20.253906 41.148438 20.183594 41.046875 C 20.105469 40.933594 20.03125 40.816406 19.960938 40.699219 C 19.898438 40.585938 19.84375 40.472656 19.785156 40.359375 C 19.726562 40.238281 19.664062 40.117188 19.613281 39.992188 C 19.574219 39.898438 19.546875 39.800781 19.511719 39.707031 C 19.476562 39.601562 19.429688 39.5 19.402344 39.394531 C 19.375 39.269531 19.320312 39.152344 19.3125 39.019531 C 19.308594 38.945312 19.273438 38.871094 19.253906 38.78125 C 19.253906 38.765625 19.25 38.761719 19.25 38.757812 C 19.253906 38.71875 19.238281 38.683594 19.226562 38.644531 C 19.199219 38.554688 19.191406 38.457031 19.179688 38.363281 C 19.167969 38.300781 19.160156 38.242188 19.152344 38.179688 C 19.144531 38.085938 19.132812 37.996094 19.121094 37.902344 C 19.113281 37.828125 19.109375 37.753906 19.105469 37.675781 C 19.101562 37.664062 19.113281 37.648438 19.121094 37.625 C 19.117188 37.605469 19.113281 37.601562 19.113281 37.59375 C 19.109375 37.324219 19.109375 37.058594 19.113281 36.777344 C 19.117188 36.757812 19.121094 36.75 19.121094 36.746094 C 19.117188 36.734375 19.117188 36.726562 19.113281 36.707031 C 19.089844 36.726562 19.066406 36.738281 19.058594 36.757812 C 19.023438 36.832031 19 36.90625 18.964844 36.980469 C 18.933594 37.058594 18.890625 37.136719 18.855469 37.214844 C 18.820312 37.308594 18.789062 37.40625 18.753906 37.5 C 18.722656 37.585938 18.679688 37.667969 18.652344 37.757812 C 18.625 37.847656 18.605469 37.941406 18.578125 38.035156 C 18.566406 38.089844 18.542969 38.140625 18.53125 38.195312 C 18.511719 38.261719 18.5 38.324219 18.484375 38.390625 C 18.484375 38.402344 18.484375 38.414062 18.480469 38.417969 C 18.40625 38.503906 18.441406 38.613281 18.414062 38.710938 C 18.367188 38.875 18.367188 39.046875 18.332031 39.210938 C 18.316406 39.285156 18.292969 39.351562 18.3125 39.429688 C 18.316406 39.4375 18.300781 39.449219 18.289062 39.472656 C 18.289062 39.511719 18.292969 39.542969 18.296875 39.570312 C 18.296875 39.578125 18.296875 39.585938 18.296875 39.601562 C 18.296875 39.621094 18.296875 39.632812 18.296875 39.644531 C 18.292969 39.695312 18.289062 39.746094 18.285156 39.808594 C 18.285156 39.824219 18.285156 39.828125 18.289062 39.832031 C 18.285156 39.917969 18.285156 40.007812 18.285156 40.109375 C 18.285156 40.125 18.285156 40.128906 18.289062 40.132812 C 18.285156 40.175781 18.285156 40.21875 18.289062 40.277344 C 18.292969 40.308594 18.296875 40.324219 18.296875 40.339844 C 18.296875 40.347656 18.296875 40.355469 18.296875 40.375 C 18.292969 40.414062 18.289062 40.445312 18.289062 40.476562 C 18.296875 40.488281 18.316406 40.503906 18.3125 40.515625 C 18.292969 40.652344 18.359375 40.773438 18.367188 40.90625 C 18.371094 41.019531 18.414062 41.121094 18.433594 41.230469 C 18.460938 41.414062 18.546875 41.582031 18.585938 41.761719 C 18.601562 41.832031 18.644531 41.898438 18.675781 41.96875 C 18.738281 42.097656 18.792969 42.230469 18.863281 42.359375 C 18.964844 42.539062 19.082031 42.714844 19.207031 42.882812 C 19.386719 43.128906 19.59375 43.355469 19.820312 43.558594 C 19.96875 43.695312 20.128906 43.824219 20.289062 43.949219 C 20.480469 44.101562 20.683594 44.230469 20.894531 44.351562 C 21.003906 44.417969 21.113281 44.492188 21.226562 44.550781 C 21.324219 44.605469 21.429688 44.644531 21.535156 44.691406 C 21.613281 44.730469 21.6875 44.769531 21.765625 44.804688 C 21.839844 44.835938 21.910156 44.863281 21.984375 44.894531 C 22.070312 44.925781 22.15625 44.960938 22.242188 44.996094 C 22.332031 45.035156 22.425781 45.074219 22.519531 45.109375 C 22.574219 45.125 22.628906 45.152344 22.679688 45.175781 C 22.8125 45.238281 22.945312 45.308594 23.082031 45.359375 C 23.191406 45.398438 23.296875 45.453125 23.398438 45.5 C 23.53125 45.5625 23.660156 45.628906 23.785156 45.691406 C 23.886719 45.742188 23.988281 45.792969 24.089844 45.847656 C 24.242188 45.933594 24.390625 46.019531 24.542969 46.105469 C 24.667969 46.175781 24.789062 46.242188 24.914062 46.3125 C 25.1875 46.472656 25.441406 46.664062 25.671875 46.878906 C 25.890625 47.082031 26.09375 47.300781 26.257812 47.554688 C 26.335938 47.679688 26.425781 47.796875 26.503906 47.925781 C 26.539062 47.984375 26.558594 48.058594 26.589844 48.125 C 26.625 48.195312 26.667969 48.265625 26.699219 48.339844 C 26.738281 48.4375 26.769531 48.539062 26.804688 48.636719 C 26.824219 48.695312 26.84375 48.753906 26.855469 48.8125 C 26.882812 48.945312 26.90625 49.074219 26.929688 49.203125 C 26.933594 49.226562 26.929688 49.25 26.929688 49.277344 C 26.929688 49.296875 26.921875 49.324219 26.929688 49.339844 C 26.976562 49.429688 26.960938 49.523438 26.964844 49.628906 C 26.96875 49.644531 26.96875 49.648438 26.96875 49.652344 C 26.96875 49.722656 26.96875 49.796875 26.964844 49.867188 C 26.964844 49.925781 26.953125 49.984375 26.9375 50.039062 C 26.917969 50.097656 26.929688 50.167969 26.925781 50.234375 C 26.921875 50.28125 26.917969 50.324219 26.90625 50.371094 C 26.890625 50.460938 26.871094 50.550781 26.847656 50.640625 C 26.816406 50.757812 26.777344 50.875 26.742188 50.992188 C 26.714844 51.082031 26.691406 51.175781 26.652344 51.261719 C 26.625 51.332031 26.59375 51.402344 26.5625 51.472656 C 26.527344 51.542969 26.492188 51.613281 26.457031 51.683594 C 26.417969 51.769531 26.382812 51.855469 26.320312 51.929688 C 26.292969 51.960938 26.285156 52.011719 26.257812 52.054688 C 26.183594 52.167969 26.125 52.289062 26.050781 52.402344 C 25.9375 52.574219 25.816406 52.742188 25.699219 52.910156 C 25.683594 52.925781 25.660156 52.9375 25.636719 52.960938 C 25.617188 52.859375 25.664062 52.78125 25.683594 52.699219 C 25.6875 52.683594 25.699219 52.671875 25.703125 52.660156 C 25.714844 52.539062 25.726562 52.421875 25.742188 52.300781 C 25.746094 52.253906 25.757812 52.210938 25.769531 52.15625 C 25.777344 52.136719 25.78125 52.132812 25.777344 52.125 C 25.773438 52.117188 25.765625 52.109375 25.765625 52.101562 C 25.769531 52.007812 25.773438 51.914062 25.777344 51.820312 C 25.777344 51.757812 25.773438 51.699219 25.777344 51.628906 C 25.777344 51.609375 25.773438 51.605469 25.769531 51.601562 Z M 29.464844 35.316406 C 29.488281 35.320312 29.515625 35.328125 29.539062 35.335938 C 29.539062 35.328125 29.542969 35.324219 29.542969 35.316406 C 29.511719 35.300781 29.480469 35.289062 29.4375 35.265625 C 29.382812 35.226562 29.320312 35.1875 29.265625 35.144531 C 29.132812 35.03125 28.996094 34.921875 28.875 34.800781 C 28.753906 34.683594 28.640625 34.554688 28.53125 34.425781 C 28.441406 34.320312 28.355469 34.207031 28.273438 34.09375 C 28.183594 33.972656 28.085938 33.847656 28.003906 33.71875 C 27.929688 33.605469 27.867188 33.480469 27.800781 33.359375 C 27.730469 33.238281 27.667969 33.117188 27.597656 33 C 27.535156 32.894531 27.472656 32.796875 27.40625 32.695312 C 27.359375 32.621094 27.3125 32.542969 27.257812 32.472656 C 27.191406 32.390625 27.125 32.316406 27.003906 32.316406 C 26.875 32.316406 26.75 32.296875 26.621094 32.285156 C 26.5625 32.28125 26.5 32.265625 26.4375 32.269531 C 26.289062 32.277344 26.144531 32.292969 25.996094 32.300781 C 25.890625 32.308594 25.785156 32.308594 25.683594 32.328125 C 25.546875 32.351562 25.414062 32.394531 25.28125 32.433594 C 25.121094 32.476562 24.964844 32.523438 24.808594 32.589844 C 24.742188 32.617188 24.675781 32.640625 24.605469 32.667969 C 24.585938 32.679688 24.570312 32.695312 24.550781 32.710938 C 24.710938 32.734375 24.863281 32.714844 25.015625 32.785156 C 24.929688 32.902344 24.988281 33.011719 25.042969 33.101562 C 25.117188 33.21875 25.222656 33.316406 25.34375 33.398438 C 25.449219 33.46875 25.558594 33.527344 25.675781 33.574219 C 25.777344 33.617188 25.878906 33.644531 25.984375 33.667969 C 26.113281 33.699219 26.253906 33.703125 26.390625 33.703125 C 26.601562 33.707031 26.816406 33.695312 27.023438 33.636719 C 27.125 33.734375 27.222656 33.828125 27.316406 33.925781 C 27.421875 34.035156 27.53125 34.132812 27.644531 34.230469 C 27.804688 34.363281 27.960938 34.492188 28.125 34.617188 C 28.238281 34.703125 28.359375 34.777344 28.476562 34.851562 C 28.554688 34.902344 28.636719 34.949219 28.71875 34.992188 C 28.824219 35.050781 28.933594 35.109375 29.042969 35.160156 C 29.140625 35.203125 29.246094 35.234375 29.34375 35.273438 C 29.382812 35.289062 29.414062 35.316406 29.464844 35.316406 Z M 21.511719 28.257812 C 21.609375 28.265625 21.707031 28.273438 21.808594 28.28125 C 21.859375 28.285156 21.910156 28.296875 21.964844 28.304688 C 22 28.308594 22.039062 28.304688 22.074219 28.3125 C 22.152344 28.332031 22.234375 28.363281 22.3125 28.371094 C 22.402344 28.375 22.484375 28.390625 22.566406 28.429688 C 22.589844 28.441406 22.621094 28.433594 22.65625 28.433594 C 22.648438 28.410156 22.652344 28.394531 22.644531 28.386719 C 22.59375 28.320312 22.539062 28.253906 22.484375 28.1875 C 22.253906 27.902344 22.019531 27.621094 21.75 27.375 C 21.550781 27.191406 21.347656 27.019531 21.128906 26.863281 C 20.976562 26.753906 20.8125 26.664062 20.65625 26.5625 C 20.601562 26.53125 20.546875 26.507812 20.492188 26.480469 C 20.394531 26.4375 20.296875 26.398438 20.195312 26.359375 C 20.175781 26.351562 20.148438 26.347656 20.128906 26.339844 C 20.082031 26.324219 20.039062 26.3125 19.996094 26.296875 C 19.972656 26.289062 19.949219 26.277344 19.925781 26.273438 C 19.832031 26.253906 19.738281 26.238281 19.640625 26.222656 C 19.570312 26.210938 19.5 26.199219 19.421875 26.210938 C 19.339844 26.222656 19.253906 26.210938 19.171875 26.210938 C 19.121094 26.210938 19.070312 26.199219 19.023438 26.207031 C 18.914062 26.222656 18.804688 26.238281 18.695312 26.261719 C 18.578125 26.285156 18.457031 26.300781 18.347656 26.347656 C 18.253906 26.386719 18.15625 26.425781 18.0625 26.472656 C 17.910156 26.554688 17.765625 26.644531 17.632812 26.753906 C 17.480469 26.875 17.347656 27.019531 17.226562 27.171875 C 17.144531 27.265625 17.089844 27.382812 17.023438 27.488281 C 17 27.53125 16.96875 27.574219 16.949219 27.621094 C 16.917969 27.703125 16.898438 27.785156 16.863281 27.863281 C 16.808594 28 16.757812 28.136719 16.726562 28.28125 C 16.714844 28.339844 16.695312 28.394531 16.683594 28.453125 C 16.671875 28.503906 16.667969 28.5625 16.65625 28.617188 C 16.617188 28.773438 16.597656 28.929688 16.597656 29.097656 C 16.597656 29.101562 16.597656 29.105469 16.597656 29.125 C 16.589844 29.265625 16.585938 29.402344 16.574219 29.539062 C 16.5625 29.714844 16.535156 29.890625 16.539062 30.070312 C 16.542969 30.167969 16.523438 30.265625 16.511719 30.367188 C 16.5 30.453125 16.488281 30.535156 16.476562 30.621094 C 16.464844 30.707031 16.460938 30.796875 16.433594 30.878906 C 16.417969 30.929688 16.40625 30.980469 16.410156 31.03125 C 16.410156 31.054688 16.402344 31.074219 16.398438 31.097656 C 16.378906 31.195312 16.324219 31.289062 16.332031 31.390625 C 16.332031 31.402344 16.328125 31.410156 16.324219 31.417969 C 16.265625 31.523438 16.265625 31.644531 16.207031 31.75 C 16.144531 31.867188 16.117188 32.003906 16.054688 32.117188 C 15.972656 32.257812 15.886719 32.398438 15.765625 32.511719 C 15.714844 32.554688 15.667969 32.597656 15.601562 32.65625 C 15.636719 32.65625 15.65625 32.65625 15.671875 32.652344 C 15.742188 32.644531 15.804688 32.628906 15.875 32.617188 C 16.085938 32.585938 16.300781 32.558594 16.511719 32.519531 C 16.640625 32.496094 16.765625 32.449219 16.890625 32.410156 C 16.945312 32.394531 17 32.386719 17.050781 32.371094 C 17.152344 32.335938 17.253906 32.296875 17.355469 32.257812 C 17.488281 32.207031 17.625 32.164062 17.753906 32.101562 C 17.945312 32.003906 18.136719 31.90625 18.320312 31.789062 C 18.535156 31.648438 18.730469 31.492188 18.914062 31.3125 C 19.117188 31.121094 19.289062 30.902344 19.429688 30.660156 C 19.457031 30.613281 19.492188 30.570312 19.511719 30.519531 C 19.53125 30.464844 19.546875 30.414062 19.589844 30.375 C 19.597656 30.367188 19.589844 30.339844 19.589844 30.3125 C 19.414062 30.3125 19.238281 30.304688 19.066406 30.3125 C 18.894531 30.320312 18.71875 30.335938 18.546875 30.359375 C 18.375 30.382812 18.207031 30.414062 18.039062 30.460938 C 17.875 30.503906 17.710938 30.550781 17.546875 30.597656 C 17.566406 30.542969 17.589844 30.5 17.625 30.46875 C 17.726562 30.363281 17.832031 30.261719 17.9375 30.164062 C 18.109375 30.003906 18.292969 29.855469 18.488281 29.726562 C 18.59375 29.65625 18.707031 29.597656 18.808594 29.523438 C 18.921875 29.441406 19.046875 29.382812 19.167969 29.320312 C 19.234375 29.285156 19.304688 29.25 19.371094 29.21875 C 19.445312 29.183594 19.519531 29.148438 19.59375 29.121094 C 19.671875 29.09375 19.757812 29.082031 19.828125 29.042969 C 19.9375 28.984375 20.066406 28.980469 20.175781 28.925781 C 20.183594 28.921875 20.195312 28.917969 20.203125 28.917969 C 20.292969 28.929688 20.367188 28.871094 20.449219 28.863281 C 20.460938 28.859375 20.46875 28.851562 20.480469 28.847656 C 20.40625 28.816406 20.332031 28.800781 20.257812 28.792969 C 20.128906 28.777344 20 28.765625 19.871094 28.75 C 19.859375 28.75 19.847656 28.742188 19.835938 28.742188 C 19.804688 28.734375 19.769531 28.71875 19.738281 28.71875 C 19.582031 28.714844 19.425781 28.71875 19.269531 28.71875 C 19.246094 28.71875 19.21875 28.710938 19.207031 28.722656 C 19.136719 28.773438 19.058594 28.746094 18.960938 28.769531 C 18.988281 28.738281 18.996094 28.722656 19.011719 28.714844 C 19.078125 28.683594 19.148438 28.660156 19.21875 28.628906 C 19.308594 28.597656 19.394531 28.550781 19.484375 28.527344 C 19.597656 28.5 19.703125 28.4375 19.828125 28.4375 C 19.941406 28.367188 20.078125 28.382812 20.199219 28.339844 C 20.289062 28.308594 20.390625 28.316406 20.484375 28.304688 C 20.511719 28.300781 20.542969 28.304688 20.566406 28.296875 C 20.726562 28.242188 20.894531 28.261719 21.058594 28.25 C 21.097656 28.246094 21.144531 28.269531 21.175781 28.253906 C 21.21875 28.238281 21.246094 28.257812 21.292969 28.265625 C 21.308594 28.257812 21.324219 28.253906 21.355469 28.25 C 21.386719 28.25 21.417969 28.25 21.460938 28.253906 C 21.472656 28.257812 21.480469 28.257812 21.511719 28.257812 Z M 21.511719 28.257812 " fill-opacity="1" fill-rule="nonzero"/><path fill="#423100" d="M 10.871094 23.863281 C 10.902344 23.847656 10.933594 23.839844 10.976562 23.828125 C 10.960938 23.886719 10.921875 23.878906 10.882812 23.886719 C 10.875 23.878906 10.875 23.875 10.871094 23.863281 Z M 10.871094 23.863281 " fill-opacity="1" fill-rule="nonzero"/><path fill="#5f4701" d="M 8.117188 29.949219 C 8.144531 29.925781 8.175781 29.90625 8.207031 29.886719 C 8.210938 29.890625 8.214844 29.894531 8.21875 29.898438 C 8.195312 29.921875 8.171875 29.945312 8.144531 29.972656 C 8.132812 29.964844 8.128906 29.960938 8.117188 29.949219 Z M 8.117188 29.949219 " fill-opacity="1" fill-rule="nonzero"/><path fill="#5f4301" d="M 18.296875 40.46875 C 18.289062 40.445312 18.292969 40.414062 18.296875 40.378906 C 18.300781 40.402344 18.300781 40.433594 18.296875 40.46875 Z M 18.296875 40.46875 " fill-opacity="1" fill-rule="nonzero"/><path fill="#5f4701" d="M 18.300781 39.5625 C 18.292969 39.542969 18.289062 39.511719 18.289062 39.480469 C 18.324219 39.496094 18.316406 39.527344 18.300781 39.5625 Z M 18.300781 39.5625 " fill-opacity="1" fill-rule="nonzero"/><path fill="#c08200" d="M 21.789062 52.492188 C 21.792969 52.507812 21.796875 52.53125 21.796875 52.558594 C 21.789062 52.542969 21.789062 52.519531 21.789062 52.492188 Z M 21.789062 52.492188 " fill-opacity="1" fill-rule="nonzero"/><path fill="#5f4301" d="M 18.300781 40.332031 C 18.296875 40.324219 18.292969 40.308594 18.289062 40.285156 C 18.292969 40.292969 18.296875 40.3125 18.300781 40.332031 Z M 18.300781 40.332031 " fill-opacity="1" fill-rule="nonzero"/><path fill="#3f2d00" d="M 20.445312 40.878906 C 20.441406 40.867188 20.441406 40.855469 20.441406 40.832031 C 20.445312 40.839844 20.449219 40.859375 20.445312 40.878906 Z M 20.445312 40.878906 " fill-opacity="1" fill-rule="nonzero"/><path fill="#5f4701" d="M 18.300781 39.636719 C 18.296875 39.632812 18.296875 39.621094 18.296875 39.605469 C 18.300781 39.613281 18.300781 39.621094 18.300781 39.636719 Z M 18.300781 39.636719 " fill-opacity="1" fill-rule="nonzero"/><path fill="#c08200" d="M 21.78125 52.15625 C 21.785156 52.160156 21.792969 52.171875 21.792969 52.183594 C 21.789062 52.179688 21.785156 52.171875 21.78125 52.15625 Z M 21.78125 52.15625 " fill-opacity="1" fill-rule="nonzero"/><path fill="#b37e02" d="M 10.019531 44.996094 C 10.015625 44.988281 10.019531 44.976562 10.023438 44.960938 C 10.027344 44.96875 10.027344 44.980469 10.019531 44.996094 Z M 10.019531 44.996094 " fill-opacity="1" fill-rule="nonzero"/><path fill="#ae7c02" d="M 10.027344 45.816406 C 10.023438 45.808594 10.019531 45.800781 10.015625 45.78125 C 10.023438 45.789062 10.027344 45.796875 10.027344 45.816406 Z M 10.027344 45.816406 " fill-opacity="1" fill-rule="nonzero"/><path fill="#ae7c02" d="M 25.773438 52.128906 C 25.78125 52.132812 25.777344 52.136719 25.769531 52.144531 C 25.769531 52.144531 25.769531 52.136719 25.773438 52.128906 Z M 25.773438 52.128906 " fill-opacity="1" fill-rule="nonzero"/><path fill="#b17801" d="M 25.769531 51.609375 C 25.773438 51.605469 25.777344 51.609375 25.777344 51.621094 C 25.773438 51.621094 25.769531 51.617188 25.769531 51.609375 Z M 25.769531 51.609375 " fill-opacity="1" fill-rule="nonzero"/><path fill="#3f3000" d="M 26.972656 49.648438 C 26.96875 49.648438 26.96875 49.644531 26.96875 49.636719 C 26.96875 49.636719 26.972656 49.640625 26.972656 49.648438 Z M 26.972656 49.648438 " fill-opacity="1" fill-rule="nonzero"/><path fill="#937101" d="M 10.246094 48.074219 C 10.242188 48.078125 10.238281 48.074219 10.234375 48.0625 C 10.242188 48.058594 10.242188 48.0625 10.246094 48.074219 Z M 10.246094 48.074219 " fill-opacity="1" fill-rule="nonzero"/><path fill="#937101" d="M 10.230469 47.976562 C 10.226562 47.976562 10.222656 47.972656 10.222656 47.96875 C 10.222656 47.96875 10.222656 47.964844 10.226562 47.960938 C 10.230469 47.964844 10.230469 47.96875 10.230469 47.976562 Z M 10.230469 47.976562 " fill-opacity="1" fill-rule="nonzero"/><path fill="#937101" d="M 10.234375 47.921875 C 10.230469 47.921875 10.226562 47.914062 10.222656 47.90625 C 10.226562 47.90625 10.234375 47.910156 10.234375 47.921875 Z M 10.234375 47.921875 " fill-opacity="1" fill-rule="nonzero"/><path fill="#3f2d00" d="M 20.445312 41.105469 C 20.441406 41.105469 20.441406 41.101562 20.441406 41.09375 C 20.445312 41.09375 20.445312 41.097656 20.445312 41.105469 Z M 20.445312 41.105469 " fill-opacity="1" fill-rule="nonzero"/><path fill="#b37e02" d="M 19.117188 36.746094 C 19.121094 36.75 19.117188 36.757812 19.113281 36.765625 C 19.113281 36.765625 19.113281 36.757812 19.117188 36.746094 Z M 19.117188 36.746094 " fill-opacity="1" fill-rule="nonzero"/><path fill="#b37e02" d="M 19.109375 37.601562 C 19.113281 37.601562 19.117188 37.605469 19.121094 37.617188 C 19.117188 37.617188 19.113281 37.609375 19.109375 37.601562 Z M 19.109375 37.601562 " fill-opacity="1" fill-rule="nonzero"/><path fill="#463300" d="M 19.246094 38.761719 C 19.25 38.761719 19.253906 38.765625 19.253906 38.773438 C 19.25 38.773438 19.246094 38.769531 19.246094 38.761719 Z M 19.246094 38.761719 " fill-opacity="1" fill-rule="nonzero"/><path fill="#412e00" d="M 18.289062 40.128906 C 18.285156 40.128906 18.285156 40.125 18.285156 40.117188 C 18.289062 40.113281 18.292969 40.117188 18.292969 40.121094 C 18.292969 40.125 18.292969 40.125 18.289062 40.128906 Z M 18.289062 40.128906 " fill-opacity="1" fill-rule="nonzero"/><path fill="#412e00" d="M 18.289062 39.828125 C 18.285156 39.828125 18.285156 39.824219 18.285156 39.816406 C 18.289062 39.816406 18.289062 39.820312 18.289062 39.828125 Z M 18.289062 39.828125 " fill-opacity="1" fill-rule="nonzero"/><path fill="#a57801" d="M 29.460938 35.3125 C 29.457031 35.300781 29.457031 35.292969 29.453125 35.277344 C 29.480469 35.289062 29.511719 35.300781 29.542969 35.316406 C 29.542969 35.324219 29.539062 35.328125 29.539062 35.335938 C 29.515625 35.328125 29.488281 35.320312 29.460938 35.3125 Z M 29.460938 35.3125 " fill-opacity="1" fill-rule="nonzero"/><path fill="#000000" d="M 20.675781 46.578125 C 20.65625 46.570312 20.640625 46.554688 20.628906 46.542969 C 20.632812 46.539062 20.632812 46.535156 20.636719 46.53125 C 20.652344 46.539062 20.667969 46.546875 20.683594 46.5625 C 20.683594 46.570312 20.679688 46.574219 20.675781 46.578125 Z M 20.675781 46.578125 " fill-opacity="1" fill-rule="nonzero"/><path fill="#b17801" d="M 21.285156 28.261719 C 21.292969 28.257812 21.308594 28.25 21.332031 28.246094 C 21.324219 28.253906 21.308594 28.257812 21.285156 28.261719 Z M 21.285156 28.261719 " fill-opacity="1" fill-rule="nonzero"/><path fill="#b17801" d="M 21.453125 28.253906 C 21.460938 28.25 21.472656 28.25 21.488281 28.253906 C 21.480469 28.257812 21.472656 28.257812 21.453125 28.253906 Z M 21.453125 28.253906 " fill-opacity="1" fill-rule="nonzero"/><path fill="#412e00" d="M 16.597656 29.09375 C 16.601562 29.09375 16.601562 29.101562 16.601562 29.109375 C 16.597656 29.105469 16.597656 29.101562 16.597656 29.09375 Z M 16.597656 29.09375 " fill-opacity="1" fill-rule="nonzero"/><g fill="#000000" fill-opacity="1"><g transform="translate(36.33021, 43.152378)"><g><path d="M 2.46875 0 L 1.28125 0 L 1.28125 -10.515625 L 6.3125 -10.515625 C 7.382812 -10.515625 8.242188 -10.21875 8.890625 -9.625 C 9.535156 -9.039062 9.859375 -8.238281 9.859375 -7.21875 C 9.859375 -5.90625 9.3125 -5.015625 8.21875 -4.546875 C 7.914062 -4.398438 7.613281 -4.296875 7.3125 -4.234375 L 10.078125 0 L 8.671875 0 L 6.125 -4.03125 L 2.46875 -4.03125 Z M 2.46875 -5.15625 L 6.109375 -5.15625 C 7.234375 -5.15625 8.003906 -5.503906 8.421875 -6.203125 C 8.585938 -6.472656 8.671875 -6.8125 8.671875 -7.21875 C 8.671875 -7.882812 8.441406 -8.410156 7.984375 -8.796875 C 7.523438 -9.179688 6.921875 -9.375 6.171875 -9.375 L 2.46875 -9.375 Z M 2.46875 -5.15625 "/></g></g></g><g fill="#000000" fill-opacity="1"><g transform="translate(46.948662, 43.152378)"><g><path d="M 6.765625 0 L 6.765625 -1.234375 C 6.472656 -0.859375 6.117188 -0.535156 5.703125 -0.265625 C 5.296875 -0.00390625 4.828125 0.125 4.296875 0.125 C 3.773438 0.125 3.320312 0.0507812 2.9375 -0.09375 C 2.550781 -0.238281 2.21875 -0.460938 1.9375 -0.765625 C 1.28125 -1.410156 0.953125 -2.257812 0.953125 -3.3125 L 0.953125 -7.9375 L 2.140625 -7.9375 L 2.140625 -3.34375 C 2.140625 -2.613281 2.34375 -2.03125 2.75 -1.59375 C 3.164062 -1.164062 3.703125 -0.953125 4.359375 -0.953125 C 5.023438 -0.953125 5.59375 -1.175781 6.0625 -1.625 C 6.53125 -2.070312 6.765625 -2.648438 6.765625 -3.359375 L 6.765625 -7.9375 L 7.953125 -7.9375 L 7.953125 0 Z M 6.765625 0 "/></g></g></g><g fill="#000000" fill-opacity="1"><g transform="translate(55.932284, 43.152378)"><g><path d="M 7.21875 -6.671875 L 7.21875 -7.9375 L 8.40625 -7.9375 L 8.40625 -0.234375 C 8.40625 0.898438 8.082031 1.765625 7.4375 2.359375 C 6.789062 2.960938 5.914062 3.265625 4.8125 3.265625 C 3.707031 3.265625 2.84375 3.050781 2.21875 2.625 C 1.601562 2.207031 1.1875 1.648438 0.96875 0.953125 L 2.28125 0.953125 C 2.625 1.773438 3.398438 2.1875 4.609375 2.1875 C 5.523438 2.1875 6.1875 1.972656 6.59375 1.546875 C 7.007812 1.128906 7.21875 0.507812 7.21875 -0.3125 L 7.21875 -1.40625 C 6.570312 -0.46875 5.625 0 4.375 0 C 3.238281 0 2.3125 -0.390625 1.59375 -1.171875 C 0.894531 -1.929688 0.546875 -2.882812 0.546875 -4.03125 C 0.546875 -5.175781 0.894531 -6.128906 1.59375 -6.890625 C 2.3125 -7.671875 3.269531 -8.0625 4.46875 -8.0625 C 5.664062 -8.0625 6.582031 -7.597656 7.21875 -6.671875 Z M 4.546875 -1.078125 C 4.972656 -1.078125 5.351562 -1.15625 5.6875 -1.3125 C 6.03125 -1.46875 6.328125 -1.675781 6.578125 -1.9375 C 7.046875 -2.488281 7.28125 -3.1875 7.28125 -4.03125 C 7.28125 -4.875 7.046875 -5.570312 6.578125 -6.125 C 6.054688 -6.695312 5.378906 -6.984375 4.546875 -6.984375 C 3.679688 -6.984375 2.988281 -6.695312 2.46875 -6.125 C 1.976562 -5.5625 1.734375 -4.863281 1.734375 -4.03125 C 1.734375 -3.195312 1.976562 -2.5 2.46875 -1.9375 C 2.988281 -1.363281 3.679688 -1.078125 4.546875 -1.078125 Z M 4.546875 -1.078125 "/></g></g></g><g fill="#000000" fill-opacity="1"><g transform="translate(65.376203, 43.152378)"><g><path d="M 1.03125 -7.9375 L 2.21875 -7.9375 L 2.21875 0 L 1.03125 0 Z M 2.265625 -10.828125 L 2.265625 -9.265625 L 0.984375 -9.265625 L 0.984375 -10.828125 Z M 2.265625 -10.828125 "/></g></g></g><g fill="#000000" fill-opacity="1"><g transform="translate(68.629987, 43.152378)"><g><path d="M 7.21875 -1.265625 C 6.582031 -0.335938 5.632812 0.125 4.375 0.125 C 3.238281 0.125 2.3125 -0.269531 1.59375 -1.0625 C 0.894531 -1.84375 0.546875 -2.8125 0.546875 -3.96875 C 0.546875 -5.125 0.894531 -6.09375 1.59375 -6.875 C 2.3125 -7.664062 3.265625 -8.0625 4.453125 -8.0625 C 5.648438 -8.0625 6.570312 -7.59375 7.21875 -6.65625 L 7.21875 -11.109375 L 8.40625 -11.109375 L 8.40625 0 L 7.21875 0 Z M 4.546875 -0.953125 C 5.398438 -0.953125 6.078125 -1.25 6.578125 -1.84375 C 7.046875 -2.40625 7.28125 -3.113281 7.28125 -3.96875 C 7.28125 -4.820312 7.046875 -5.53125 6.578125 -6.09375 C 6.078125 -6.6875 5.398438 -6.984375 4.546875 -6.984375 C 3.691406 -6.984375 3 -6.6875 2.46875 -6.09375 C 1.976562 -5.53125 1.734375 -4.820312 1.734375 -3.96875 C 1.734375 -3.113281 1.976562 -2.40625 2.46875 -1.84375 C 3 -1.25 3.691406 -0.953125 4.546875 -0.953125 Z M 4.546875 -0.953125 "/></g></g></g><g fill="#000000" fill-opacity="1"><g transform="translate(78.073906, 43.152378)"><g><path d="M 4.484375 -8.0625 C 5.660156 -8.0625 6.617188 -7.664062 7.359375 -6.875 C 8.054688 -6.113281 8.40625 -5.144531 8.40625 -3.96875 C 8.40625 -2.789062 8.054688 -1.820312 7.359375 -1.0625 C 6.617188 -0.269531 5.660156 0.125 4.484375 0.125 C 3.296875 0.125 2.332031 -0.269531 1.59375 -1.0625 C 0.894531 -1.820312 0.546875 -2.789062 0.546875 -3.96875 C 0.546875 -5.144531 0.894531 -6.113281 1.59375 -6.875 C 2.332031 -7.664062 3.296875 -8.0625 4.484375 -8.0625 Z M 4.484375 -0.953125 C 5.335938 -0.953125 6.015625 -1.25 6.515625 -1.84375 C 6.984375 -2.40625 7.21875 -3.113281 7.21875 -3.96875 C 7.21875 -4.820312 6.984375 -5.53125 6.515625 -6.09375 C 6.015625 -6.6875 5.335938 -6.984375 4.484375 -6.984375 C 3.617188 -6.984375 2.9375 -6.6875 2.4375 -6.09375 C 1.96875 -5.53125 1.734375 -4.820312 1.734375 -3.96875 C 1.734375 -3.113281 1.96875 -2.40625 2.4375 -1.84375 C 2.9375 -1.25 3.617188 -0.953125 4.484375 -0.953125 Z M 4.484375 -0.953125 "/></g></g></g><g fill="#000000" fill-opacity="1"><g transform="translate(87.025785, 43.152378)"><g/></g></g><g fill="#000000" fill-opacity="1"><g transform="translate(90.40655, 43.152378)"><g><path d="M 7.21875 -1.265625 C 6.582031 -0.335938 5.632812 0.125 4.375 0.125 C 3.238281 0.125 2.3125 -0.269531 1.59375 -1.0625 C 0.894531 -1.84375 0.546875 -2.8125 0.546875 -3.96875 C 0.546875 -5.125 0.894531 -6.09375 1.59375 -6.875 C 2.3125 -7.664062 3.265625 -8.0625 4.453125 -8.0625 C 5.648438 -8.0625 6.570312 -7.59375 7.21875 -6.65625 L 7.21875 -11.109375 L 8.40625 -11.109375 L 8.40625 0 L 7.21875 0 Z M 4.546875 -0.953125 C 5.398438 -0.953125 6.078125 -1.25 6.578125 -1.84375 C 7.046875 -2.40625 7.28125 -3.113281 7.28125 -3.96875 C 7.28125 -4.820312 7.046875 -5.53125 6.578125 -6.09375 C 6.078125 -6.6875 5.398438 -6.984375 4.546875 -6.984375 C 3.691406 -6.984375 3 -6.6875 2.46875 -6.09375 C 1.976562 -5.53125 1.734375 -4.820312 1.734375 -3.96875 C 1.734375 -3.113281 1.976562 -2.40625 2.46875 -1.84375 C 3 -1.25 3.691406 -0.953125 4.546875 -0.953125 Z M 4.546875 -0.953125 "/></g></g></g><g fill="#000000" fill-opacity="1"><g transform="translate(99.850469, 43.152378)"><g><path d="M 4.484375 -8.0625 C 5.660156 -8.0625 6.617188 -7.664062 7.359375 -6.875 C 8.054688 -6.113281 8.40625 -5.144531 8.40625 -3.96875 C 8.40625 -2.789062 8.054688 -1.820312 7.359375 -1.0625 C 6.617188 -0.269531 5.660156 0.125 4.484375 0.125 C 3.296875 0.125 2.332031 -0.269531 1.59375 -1.0625 C 0.894531 -1.820312 0.546875 -2.789062 0.546875 -3.96875 C 0.546875 -5.144531 0.894531 -6.113281 1.59375 -6.875 C 2.332031 -7.664062 3.296875 -8.0625 4.484375 -8.0625 Z M 4.484375 -0.953125 C 5.335938 -0.953125 6.015625 -1.25 6.515625 -1.84375 C 6.984375 -2.40625 7.21875 -3.113281 7.21875 -3.96875 C 7.21875 -4.820312 6.984375 -5.53125 6.515625 -6.09375 C 6.015625 -6.6875 5.335938 -6.984375 4.484375 -6.984375 C 3.617188 -6.984375 2.9375 -6.6875 2.4375 -6.09375 C 1.96875 -5.53125 1.734375 -4.820312 1.734375 -3.96875 C 1.734375 -3.113281 1.96875 -2.40625 2.4375 -1.84375 C 2.9375 -1.25 3.617188 -0.953125 4.484375 -0.953125 Z M 4.484375 -0.953125 "/></g></g></g><g fill="#000000" fill-opacity="1"><g transform="translate(108.802348, 43.152378)"><g/></g></g><g fill="#000000" fill-opacity="1"><g transform="translate(112.183113, 43.152378)"><g><path d="M 2.46875 -10.515625 L 2.46875 -1.140625 L 8.203125 -1.140625 L 8.203125 0 L 1.28125 0 L 1.28125 -10.515625 Z M 2.46875 -10.515625 "/></g></g></g><g fill="#000000" fill-opacity="1"><g transform="translate(120.642958, 43.152378)"><g><path d="M 4.578125 -0.953125 C 5.640625 -0.953125 6.40625 -1.394531 6.875 -2.28125 L 8.171875 -2.28125 C 7.898438 -1.5625 7.460938 -0.976562 6.859375 -0.53125 C 6.265625 -0.09375 5.5 0.125 4.5625 0.125 C 3.363281 0.125 2.390625 -0.269531 1.640625 -1.0625 C 0.910156 -1.832031 0.546875 -2.800781 0.546875 -3.96875 C 0.546875 -5.144531 0.894531 -6.113281 1.59375 -6.875 C 2.332031 -7.664062 3.296875 -8.0625 4.484375 -8.0625 C 5.660156 -8.0625 6.617188 -7.664062 7.359375 -6.875 C 8.054688 -6.113281 8.40625 -5.144531 8.40625 -3.96875 L 8.40625 -3.5 L 1.765625 -3.5 C 1.847656 -2.757812 2.140625 -2.15625 2.640625 -1.6875 C 3.140625 -1.195312 3.785156 -0.953125 4.578125 -0.953125 Z M 4.484375 -6.984375 C 3.742188 -6.984375 3.128906 -6.753906 2.640625 -6.296875 C 2.171875 -5.867188 1.882812 -5.304688 1.78125 -4.609375 L 7.171875 -4.609375 C 7.066406 -5.304688 6.78125 -5.867188 6.3125 -6.296875 C 5.820312 -6.753906 5.210938 -6.984375 4.484375 -6.984375 Z M 4.484375 -6.984375 "/></g></g></g><g fill="#000000" fill-opacity="1"><g transform="translate(129.483732, 43.152378)"><g><path d="M 7.21875 -1.265625 C 6.582031 -0.335938 5.632812 0.125 4.375 0.125 C 3.238281 0.125 2.3125 -0.269531 1.59375 -1.0625 C 0.894531 -1.84375 0.546875 -2.8125 0.546875 -3.96875 C 0.546875 -5.125 0.894531 -6.09375 1.59375 -6.875 C 2.3125 -7.664062 3.265625 -8.0625 4.453125 -8.0625 C 5.648438 -8.0625 6.570312 -7.59375 7.21875 -6.65625 L 7.21875 -7.9375 L 8.40625 -7.9375 L 8.40625 0 L 7.21875 0 Z M 4.546875 -0.953125 C 5.398438 -0.953125 6.078125 -1.25 6.578125 -1.84375 C 7.046875 -2.40625 7.28125 -3.113281 7.28125 -3.96875 C 7.28125 -4.820312 7.046875 -5.53125 6.578125 -6.09375 C 6.078125 -6.6875 5.398438 -6.984375 4.546875 -6.984375 C 3.691406 -6.984375 3 -6.6875 2.46875 -6.09375 C 1.976562 -5.53125 1.734375 -4.820312 1.734375 -3.96875 C 1.734375 -3.113281 1.976562 -2.40625 2.46875 -1.84375 C 3 -1.25 3.691406 -0.953125 4.546875 -0.953125 Z M 3.421875 -9.671875 C 3.054688 -9.671875 2.796875 -9.460938 2.640625 -9.046875 L 2.140625 -9.046875 C 2.210938 -9.742188 2.503906 -10.222656 3.015625 -10.484375 C 3.203125 -10.566406 3.425781 -10.609375 3.6875 -10.609375 C 4.03125 -10.609375 4.347656 -10.53125 4.640625 -10.375 C 4.941406 -10.226562 5.171875 -10.117188 5.328125 -10.046875 C 5.484375 -9.984375 5.660156 -9.953125 5.859375 -9.953125 C 6.066406 -9.953125 6.234375 -10.019531 6.359375 -10.15625 C 6.484375 -10.300781 6.566406 -10.445312 6.609375 -10.59375 L 7.109375 -10.59375 C 6.941406 -9.550781 6.4375 -9.03125 5.59375 -9.03125 C 5.207031 -9.03125 4.867188 -9.101562 4.578125 -9.25 C 4.296875 -9.394531 4.078125 -9.5 3.921875 -9.5625 C 3.773438 -9.632812 3.609375 -9.671875 3.421875 -9.671875 Z M 3.421875 -9.671875 "/></g></g></g><g fill="#000000" fill-opacity="1"><g transform="translate(138.927651, 43.152378)"><g><path d="M 4.484375 -8.0625 C 5.660156 -8.0625 6.617188 -7.664062 7.359375 -6.875 C 8.054688 -6.113281 8.40625 -5.144531 8.40625 -3.96875 C 8.40625 -2.789062 8.054688 -1.820312 7.359375 -1.0625 C 6.617188 -0.269531 5.660156 0.125 4.484375 0.125 C 3.296875 0.125 2.332031 -0.269531 1.59375 -1.0625 C 0.894531 -1.820312 0.546875 -2.789062 0.546875 -3.96875 C 0.546875 -5.144531 0.894531 -6.113281 1.59375 -6.875 C 2.332031 -7.664062 3.296875 -8.0625 4.484375 -8.0625 Z M 4.484375 -0.953125 C 5.335938 -0.953125 6.015625 -1.25 6.515625 -1.84375 C 6.984375 -2.40625 7.21875 -3.113281 7.21875 -3.96875 C 7.21875 -4.820312 6.984375 -5.53125 6.515625 -6.09375 C 6.015625 -6.6875 5.335938 -6.984375 4.484375 -6.984375 C 3.617188 -6.984375 2.9375 -6.6875 2.4375 -6.09375 C 1.96875 -5.53125 1.734375 -4.820312 1.734375 -3.96875 C 1.734375 -3.113281 1.96875 -2.40625 2.4375 -1.84375 C 2.9375 -1.25 3.617188 -0.953125 4.484375 -0.953125 Z M 4.484375 -0.953125 "/></g></g></g></svg>